HIERARCHY
ROOT Hips
{
	OFFSET 0.000000 35.082581 0.000000
	CHANNELS 6 Xposition Yposition Zposition Xrotation Yrotation Zrotation 
	JOINT Spine
	{
		OFFSET 0.000000 6.876099 0.125700
		CHANNELS 3 Xrotation Yrotation Zrotation
		JOINT Spine1
		{
			OFFSET 0.000000 5.730043 0.104720
			CHANNELS 3 Xrotation Yrotation Zrotation
			JOINT Spine1_split
			{
				OFFSET 0.000000 5.730043 0.104720
				CHANNELS 3 Xrotation Yrotation Zrotation
				JOINT Spine2
				{
					OFFSET 0.000000 5.730043 0.104720
					CHANNELS 3 Xrotation Yrotation Zrotation
					JOINT Neck
					{
						OFFSET 0.000000 10.314075 0.188496
						CHANNELS 3 Xrotation Yrotation Zrotation
						JOINT Head
						{
							OFFSET 0.000000 7.643700 -2.377400
							CHANNELS 3 Xrotation Yrotation Zrotation
							JOINT HeadTop_End
							{
								OFFSET 0.000000 43.788605 -13.619600
								CHANNELS 3 Xrotation Yrotation Zrotation
								End Site
								{
									OFFSET 0.000000 0.000000 0.000000
								}
							}
						}
					}
					JOINT LeftShoulder
					{
						OFFSET 2.196100 4.412489 0.087492
						CHANNELS 3 Xrotation Yrotation Zrotation
						JOINT LeftShoulder_split
						{
							OFFSET 2.196100 4.412489 0.087492
							CHANNELS 3 Xrotation Yrotation Zrotation
							JOINT LeftArm
							{
								OFFSET 8.771219 -2.981674 -0.026999
								CHANNELS 3 Xrotation Yrotation Zrotation
								JOINT LeftForeArm
								{
									OFFSET 8.512804 0.000000 -0.000000
									CHANNELS 3 Xrotation Yrotation Zrotation
									JOINT LeftHand
									{
										OFFSET 18.484802 0.000000 -0.000000
										CHANNELS 3 Xrotation Yrotation Zrotation
										JOINT LeftHandThumb1
										{
											OFFSET 2.499420 -1.158070 2.653252
											CHANNELS 3 Xrotation Yrotation Zrotation
											JOINT LeftHandThumb2
											{
												OFFSET 2.370079 -1.368366 1.368366
												CHANNELS 3 Xrotation Yrotation Zrotation
												JOINT LeftHandThumb3
												{
													OFFSET 2.676727 -1.545410 1.545409
													CHANNELS 3 Xrotation Yrotation Zrotation
													JOINT LeftHandThumb4
													{
														OFFSET 1.692226 -0.977005 0.977007
														CHANNELS 3 Xrotation Yrotation Zrotation
														End Site
														{
															OFFSET 0.000000 0.000000 0.000000
														}
													}
												}
											}
										}
										JOINT LeftHandIndex1
										{
											OFFSET 7.924831 -0.457527 2.345128
											CHANNELS 3 Xrotation Yrotation Zrotation
											JOINT LeftHandIndex2
											{
												OFFSET 3.643303 0.000000 0.000000
												CHANNELS 3 Xrotation Yrotation Zrotation
												JOINT LeftHandIndex3
												{
													OFFSET 3.810799 0.000000 0.000000
													CHANNELS 3 Xrotation Yrotation Zrotation
													JOINT LeftHandIndex4
													{
														OFFSET 2.403702 0.000000 0.000000
														CHANNELS 3 Xrotation Yrotation Zrotation
														End Site
														{
															OFFSET 0.000000 0.000000 0.000000
														}
													}
												}
											}
										}
										JOINT LeftHandMiddle1
										{
											OFFSET 8.563995 0.000000 -0.000000
											CHANNELS 3 Xrotation Yrotation Zrotation
											JOINT LeftHandMiddle2
											{
												OFFSET 3.861618 0.000000 0.000000
												CHANNELS 3 Xrotation Yrotation Zrotation
												JOINT LeftHandMiddle3
												{
													OFFSET 3.701603 0.000000 0.000000
													CHANNELS 3 Xrotation Yrotation Zrotation
													JOINT LeftHandMiddle4
													{
														OFFSET 2.322544 0.000000 0.000000
														CHANNELS 3 Xrotation Yrotation Zrotation
														End Site
														{
															OFFSET 0.000000 0.000000 0.000000
														}
													}
												}
											}
										}
										JOINT LeftHandRing1
										{
											OFFSET 8.426460 -0.424637 -3.286992
											CHANNELS 3 Xrotation Yrotation Zrotation
											JOINT LeftHandRing2
											{
												OFFSET 3.126408 0.000000 0.000000
												CHANNELS 3 Xrotation Yrotation Zrotation
												JOINT LeftHandRing3
												{
													OFFSET 3.085026 0.000000 0.000000
													CHANNELS 3 Xrotation Yrotation Zrotation
													JOINT LeftHandRing4
													{
														OFFSET 1.644005 0.000000 0.000000
														CHANNELS 3 Xrotation Yrotation Zrotation
														End Site
														{
															OFFSET 0.000000 0.000000 0.000000
														}
													}
												}
											}
										}
									}
								}
							}
						}
					}
					JOINT RightShoulder
					{
						OFFSET -2.196100 4.412496 0.070690
						CHANNELS 3 Xrotation Yrotation Zrotation
						JOINT RightShoulder_split
						{
							OFFSET -2.196100 4.412496 0.070690
							CHANNELS 3 Xrotation Yrotation Zrotation
							JOINT RightArm
							{
								OFFSET -8.771282 -2.981682 -0.094208
								CHANNELS 3 Xrotation Yrotation Zrotation
								JOINT RightForeArm
								{
									OFFSET -8.494598 0.000000 0.000000
									CHANNELS 3 Xrotation Yrotation Zrotation
									JOINT RightHand
									{
										OFFSET -18.483803 0.000000 0.000001
										CHANNELS 3 Xrotation Yrotation Zrotation
										JOINT RightHandThumb1
										{
											OFFSET -2.527351 -1.008072 2.575253
											CHANNELS 3 Xrotation Yrotation Zrotation
											JOINT RightHandThumb2
											{
												OFFSET -2.321518 -1.340328 1.340329
												CHANNELS 3 Xrotation Yrotation Zrotation
												JOINT RightHandThumb3
												{
													OFFSET -2.657753 -1.534454 1.534455
													CHANNELS 3 Xrotation Yrotation Zrotation
													JOINT RightHandThumb4
													{
														OFFSET -1.807510 -1.043568 1.043567
														CHANNELS 3 Xrotation Yrotation Zrotation
														End Site
														{
															OFFSET 0.000000 0.000000 0.000000
														}
													}
												}
											}
										}
										JOINT RightHandIndex1
										{
											OFFSET -8.811420 0.015533 2.887987
											CHANNELS 3 Xrotation Yrotation Zrotation
											JOINT RightHandIndex2
											{
												OFFSET -3.537502 0.000000 0.000000
												CHANNELS 3 Xrotation Yrotation Zrotation
												JOINT RightHandIndex3
												{
													OFFSET -3.356201 0.000000 0.000000
													CHANNELS 3 Xrotation Yrotation Zrotation
													JOINT RightHandIndex4
													{
														OFFSET -1.933098 0.000000 0.000000
														CHANNELS 3 Xrotation Yrotation Zrotation
														End Site
														{
															OFFSET 0.000000 0.000000 0.000000
														}
													}
												}
											}
										}
										JOINT RightHandMiddle1
										{
											OFFSET -8.178135 0.000000 0.000000
											CHANNELS 3 Xrotation Yrotation Zrotation
											JOINT RightHandMiddle2
											{
												OFFSET -3.901302 0.000000 0.000000
												CHANNELS 3 Xrotation Yrotation Zrotation
												JOINT RightHandMiddle3
												{
													OFFSET -3.909599 0.000000 0.000000
													CHANNELS 3 Xrotation Yrotation Zrotation
													JOINT RightHandMiddle4
													{
														OFFSET -2.376003 0.000000 0.000000
														CHANNELS 3 Xrotation Yrotation Zrotation
														End Site
														{
															OFFSET 0.000000 0.000000 0.000000
														}
													}
												}
											}
										}
										JOINT RightHandRing1
										{
											OFFSET -7.559013 0.014137 -2.865403
											CHANNELS 3 Xrotation Yrotation Zrotation
											JOINT RightHandRing2
											{
												OFFSET -3.449306 0.000000 0.000000
												CHANNELS 3 Xrotation Yrotation Zrotation
												JOINT RightHandRing3
												{
													OFFSET -3.362106 0.000000 0.000000
													CHANNELS 3 Xrotation Yrotation Zrotation
													JOINT RightHandRing4
													{
														OFFSET -2.076401 0.000000 0.000000
														CHANNELS 3 Xrotation Yrotation Zrotation
														End Site
														{
															OFFSET 0.000000 0.000000 0.000000
														}
													}
												}
											}
										}
									}
								}
							}
						}
					}
				}
			}
		}
	}
	JOINT LeftUpLeg
	{
		OFFSET 10.205400 -3.823500 0.155100
		CHANNELS 3 Xrotation Yrotation Zrotation
		JOINT LeftLeg
		{
			OFFSET 0.708757 -12.982077 0.567790
			CHANNELS 3 Xrotation Yrotation Zrotation
			JOINT LeftFoot
			{
				OFFSET -0.708756 -10.717838 -2.184338
				CHANNELS 3 Xrotation Yrotation Zrotation
				JOINT LeftToeBase
				{
					OFFSET 0.108149 -7.191104 7.560241
					CHANNELS 3 Xrotation Yrotation Zrotation
					JOINT LeftToe_End
					{
						OFFSET 0.070230 0.081724 4.490308
						CHANNELS 3 Xrotation Yrotation Zrotation
						End Site
						{
							OFFSET 0.000000 0.000000 0.000000
						}
					}
				}
			}
		}
	}
	JOINT RightUpLeg
	{
		OFFSET -10.205400 -3.823500 0.005500
		CHANNELS 3 Xrotation Yrotation Zrotation
		JOINT RightLeg
		{
			OFFSET -0.708756 -12.982134 0.610632
			CHANNELS 3 Xrotation Yrotation Zrotation
			JOINT RightFoot
			{
				OFFSET 0.708754 -10.717769 -1.945823
				CHANNELS 3 Xrotation Yrotation Zrotation
				JOINT RightToeBase
				{
					OFFSET -0.108140 -7.191069 7.372968
					CHANNELS 3 Xrotation Yrotation Zrotation
					JOINT RightToe_End
					{
						OFFSET -0.070227 0.081735 4.479403
						CHANNELS 3 Xrotation Yrotation Zrotation
						End Site
						{
							OFFSET 0.000000 0.000000 0.000000
						}
					}
				}
			}
		}
	}
}
MOTION
Frames: 5
Frame Time: 0.016667
-2.492693 30.542931 -0.771028 51.399656 -70.854088 52.232109 7.774331 3.308454 4.655798 12.707907 6.406385 6.655390 0.000000 0.000000 0.000000 12.728351 6.436528 6.586129 3.385403 -0.460105 2.258528 8.874437 1.648277 -4.487669 -0.000001 0.000001 -0.000001 0.608287 -2.105578 -11.581391 0.000000 0.000000 0.000000 -46.459172 -29.078813 -92.550709 -0.000005 -20.859010 -0.000012 -20.416212 18.957801 30.637947 55.682660 -2.117590 45.305594 81.950345 -1.423311 50.782515 -10.247772 17.984641 1.554713 0.000001 0.000000 0.000001 0.230313 3.926593 -22.478590 5.723142 5.849681 -88.745338 5.723176 5.849669 -88.745290 0.000000 0.000000 -0.000001 6.341360 9.458917 -58.484294 6.990985 5.739326 -101.253320 6.566590 5.807302 -97.036258 -0.000001 -0.000001 -0.000002 7.415876 8.807748 -74.918030 5.953045 5.850189 -91.000420 6.157376 5.843069 -93.006215 0.000000 0.000001 0.000006 -0.784354 15.466943 22.252644 0.000000 0.000000 0.000000 -56.162863 25.008341 77.070946 0.000023 0.015605 -0.000001 -12.877745 -7.607198 2.872482 -0.787168 13.150271 -22.268085 11.690799 -49.505638 19.340367 2.734735 -6.739222 -25.279049 -0.000000 0.000002 -0.000000 -2.857607 -16.672251 -11.849138 4.400813 -4.650137 86.840985 4.400819 -4.650120 86.841136 0.000003 -0.000002 -0.000002 6.189302 -11.029357 41.067113 5.549101 -4.571158 101.053236 5.225946 -4.622390 97.022673 0.000001 0.000000 0.000001 -0.865227 -4.640755 62.576322 4.860701 -4.652728 92.507570 5.023311 -4.642776 94.514054 0.000000 -0.000001 0.000001 -58.377818 0.818872 0.003287 47.994206 -10.409435 1.585182 -6.735438 -0.224889 -2.923693 -0.379278 1.642684 -1.202599 0.000000 -0.000000 -0.000000 -40.596220 -3.559080 -22.455422 55.891571 -0.563467 -1.599198 -27.057861 -6.993699 18.131915 -1.799635 0.000010 0.000001 0.000000 0.000000 -0.000000 
-2.493016 30.548061 -0.755657 51.316990 -70.837019 52.137204 7.775536 3.301597 4.641400 12.722937 6.393027 6.642685 0.000000 0.000000 0.000000 12.744221 6.422142 6.572925 3.354591 -0.453950 2.186404 8.724220 1.871166 -4.553501 -0.000000 0.000001 0.000000 0.608185 -2.112954 -11.540867 0.000000 0.000000 0.000000 -46.406388 -29.046295 -92.578139 -0.000000 -20.879941 -0.000003 -20.407311 18.976303 30.509352 55.367504 -2.060181 45.240977 83.883261 -1.387109 51.818490 -10.307659 17.537431 1.597575 -0.000004 0.000000 0.000001 0.241767 3.953150 -22.443465 5.715985 5.849517 -88.675123 5.716015 5.849508 -88.675089 0.000000 -0.000001 -0.000002 6.324651 9.455582 -58.401683 6.990977 5.739339 -101.253347 6.566589 5.807311 -97.036245 0.000001 -0.000000 -0.000003 7.408052 8.809539 -74.848478 5.949525 5.850246 -90.966017 6.153883 5.843259 -92.971831 -0.000000 0.000000 0.000002 -0.774896 15.458368 22.231190 0.000000 0.000000 0.000000 -54.597298 24.896593 76.442903 -0.000007 2.873087 0.000004 -12.870070 -9.290313 2.437206 -0.798243 13.174590 -22.271961 11.757481 -49.535909 19.412202 2.724980 -6.695504 -25.326410 0.000007 0.000000 -0.000003 -2.848296 -16.689885 -11.803253 4.402687 -4.650227 86.864153 4.402696 -4.650222 86.864242 -0.000000 0.000001 -0.000002 6.207334 -11.051152 41.060912 5.549106 -4.571144 101.053243 5.225969 -4.622381 97.022632 -0.000001 -0.000000 0.000000 -0.875328 -4.637298 62.599394 4.858842 -4.652808 92.484313 5.021456 -4.642922 94.490879 0.000001 -0.000000 -0.000001 -58.351945 0.812900 -0.031879 47.971304 -10.381952 1.582116 -6.725776 -0.229826 -2.886323 -0.314258 1.660607 -1.234930 0.000000 -0.000000 -0.000000 -40.523601 -3.582530 -22.496898 55.795040 -0.523772 -1.566556 -27.019617 -7.027643 18.136234 -1.807210 -0.000006 -0.000005 0.000000 0.000000 0.000000 
-2.492370 30.553116 -0.739847 51.248473 -70.814411 52.060115 7.777055 3.289777 4.629840 12.734698 6.382456 6.620565 0.000000 0.000000 0.000000 12.753682 6.413125 6.553435 3.323828 -0.449312 2.118603 8.568392 2.100353 -4.603540 -0.000001 -0.000000 0.000000 0.607735 -2.121769 -11.502035 0.000000 0.000000 0.000000 -46.348779 -29.026190 -92.588713 0.000001 -20.910904 0.000015 -20.414906 18.980133 30.448205 55.053408 -2.001871 45.179867 85.655312 -1.068791 52.951626 -10.366748 17.090021 1.640441 -0.000001 0.000002 -0.000000 0.253182 3.979739 -22.408324 5.708843 5.849371 -88.604971 5.708871 5.849346 -88.604909 0.000000 0.000000 -0.000002 6.307990 9.452201 -58.319113 6.990980 5.739343 -101.253327 6.566587 5.807304 -97.036279 -0.000001 0.000000 0.000001 7.400216 8.811310 -74.778946 5.946032 5.850305 -90.931640 6.150377 5.843432 -92.937476 0.000000 0.000000 -0.000001 -0.771675 15.442477 22.219744 0.000000 0.000000 0.000000 -54.175558 25.033939 76.267771 -0.000001 3.450916 -0.000011 -13.186367 -9.532942 2.438381 -0.811500 13.198153 -22.276933 11.835199 -49.570170 19.494987 2.713434 -6.643963 -25.382926 -0.000000 0.000001 0.000002 -2.834086 -16.711513 -11.736777 4.407221 -4.650480 86.920058 4.407240 -4.650462 86.920181 0.000001 0.000001 -0.000002 6.223085 -11.065503 41.078930 5.549106 -4.571140 101.053257 5.225950 -4.622382 97.022660 -0.000000 0.000001 -0.000000 -0.885570 -4.633922 62.624645 4.855925 -4.652928 92.448564 5.018534 -4.643166 94.455096 0.000001 0.000000 0.000001 -58.324536 0.782553 -0.062791 47.941197 -10.281819 1.562186 -6.703612 -0.230579 -2.876628 -0.366024 1.568039 -1.147988 0.000000 -0.000000 0.000000 -40.466320 -3.602540 -22.544190 55.704021 -0.497683 -1.538271 -26.978465 -7.048316 18.151299 -1.783628 0.000019 0.000006 0.000000 -0.000000 0.000000 
-2.491237 30.556900 -0.723621 51.186322 -70.789023 51.990054 7.778254 3.283651 4.614589 12.748107 6.372652 6.603413 0.000000 0.000000 0.000000 12.767401 6.402604 6.536472 3.292754 -0.439155 2.047256 8.416539 2.324650 -4.644369 0.000001 0.000003 0.000000 0.605201 -2.134127 -11.471682 0.000000 0.000000 0.000000 -46.290391 -29.015327 -92.588514 0.000003 -20.949857 0.000007 -20.434109 18.977744 30.419258 54.740374 -1.942697 45.122255 87.181040 -0.340583 54.208418 -10.425085 16.642391 1.683355 -0.000000 0.000002 -0.000000 0.264606 4.006394 -22.373270 5.701696 5.849171 -88.534729 5.701711 5.849162 -88.534667 0.000000 0.000000 -0.000001 6.291364 9.448809 -58.236542 6.990974 5.739341 -101.253340 6.566587 5.807306 -97.036252 -0.000001 -0.000000 -0.000003 7.392391 8.813085 -74.709415 5.942527 5.850361 -90.897230 6.146889 5.843605 -92.903133 -0.000000 -0.000001 -0.000001 -0.765669 15.424799 22.200304 0.000000 0.000000 0.000000 -53.294743 25.069718 75.930817 0.000016 4.975352 -0.000003 -13.266107 -10.397357 2.181842 -0.824688 13.208700 -22.283757 11.930279 -49.611701 19.594100 2.699759 -6.586557 -25.450484 0.000002 0.000000 -0.000002 -2.809468 -16.735791 -11.630369 4.407968 -4.650508 86.929402 4.407994 -4.650512 86.929552 0.000001 0.000001 -0.000000 6.238575 -11.074692 41.121164 5.549116 -4.571160 101.053236 5.225963 -4.622374 97.022646 0.000000 0.000001 -0.000002 -0.896605 -4.631386 62.666132 4.854711 -4.652976 92.433401 5.017321 -4.643242 94.439953 0.000001 0.000001 -0.000000 -58.324515 0.797955 -0.111190 47.923039 -10.298986 1.566190 -6.694160 -0.237802 -2.832991 -0.297206 1.680639 -1.255434 0.000000 0.000001 0.000000 -40.413621 -3.609226 -22.592679 55.621854 -0.461302 -1.502914 -26.940416 -7.084871 18.161184 -1.794661 -0.000018 0.000011 -0.000000 -0.000000 0.000000 
-2.489526 30.560848 -0.707142 51.126708 -70.760234 51.923819 7.779036 3.282112 4.599712 12.761462 6.360631 6.585520 0.000000 0.000000 0.000000 12.782051 6.390461 6.516429 3.261843 -0.433256 1.978215 8.264419 2.555796 -4.677159 -0.000002 -0.000000 -0.000000 0.622102 -2.152988 -11.444317 0.000000 0.000000 0.000000 -46.248994 -29.013537 -92.576780 0.000012 -20.995855 0.000021 -20.466440 18.967201 30.424320 54.428384 -1.882648 45.068221 88.683436 0.391170 55.479096 -10.482680 16.194551 1.726283 -0.000001 0.000003 -0.000003 0.275985 4.033100 -22.338231 5.694531 5.848983 -88.464480 5.694548 5.848979 -88.464460 0.000001 0.000001 -0.000002 6.274760 9.445390 -58.153965 6.990980 5.739334 -101.253340 6.566572 5.807315 -97.036258 -0.000000 -0.000001 -0.000000 7.384538 8.814847 -74.639870 5.939030 5.850411 -90.862826 6.143391 5.843777 -92.868737 -0.000000 0.000000 0.000001 -0.770509 15.402020 22.186657 0.000000 0.000000 0.000000 -52.826930 25.199976 75.725378 0.000008 5.532887 -0.000004 -14.100295 -10.260863 2.369787 -0.842390 13.224680 -22.291470 12.053632 -49.666202 19.723286 2.682983 -6.520974 -25.534181 0.000005 0.000005 -0.000002 -2.776890 -16.763004 -11.493070 4.406773 -4.650443 86.914314 4.406772 -4.650430 86.914485 -0.000001 -0.000000 -0.000002 6.259092 -11.089139 41.165495 5.549111 -4.571165 101.053229 5.225962 -4.622388 97.022673 -0.000000 0.000001 0.000002 -0.910464 -4.628360 62.719592 4.853433 -4.653042 92.417883 5.016066 -4.643348 94.424401 0.000000 0.000000 0.000001 -58.317193 0.820845 -0.150676 47.885824 -10.283181 1.572700 -6.646171 -0.241957 -2.803021 -0.307533 1.694433 -1.263341 0.000001 -0.000000 -0.000000 -40.360332 -3.602894 -22.644060 55.540622 -0.446932 -1.457630 -26.900977 -7.108988 18.179781 -1.765936 0.000021 0.000002 0.000000 0.000001 0.000000 
